# xmcd
#
# Track frame offsets:
#	150
#	18875
#	41770
#	62522
#	82542
#	96422
#	121227
#	141210
#	174095
#	189952
#
# Disc length: 3041 seconds
#
# Revision: 1
# Processed by: cddbd v1.4PL0 Copyright (c) Steve Scherf et al.
# Submitted via: EasyCDDAExtractor 5.0.6
#
DISCID=6f0bdf0a
DTITLE=Sun Walk and Dog Brothers - To Change the Things
DYEAR=2002
DGENRE=Blues
TTITLE0=I Can Sleep
TTITLE1=I Want You
TTITLE2=Special Trash
TTITLE3=Incomprehension
TTITLE4=Hooker's Show
TTITLE5=Blues I'm Crying
TTITLE6=To Change the Things
TTITLE7=Your Mind Is Your Trouble
TTITLE8=Blues This Morning
TTITLE9=War
EXTD=
EXTT0=
EXTT1=
EXTT2=
EXTT3=
EXTT4=
EXTT5=
EXTT6=
EXTT7=
EXTT8=
EXTT9=
PLAYORDER=
